
<svg width="405" height="105" viewBox="0 0 405 105" fill="none" xmlns="http://www.w3.org/2000/svg">
<path d="M0 68.4287C7.47285 86.0145 24.8565 98.3529 45.1021 98.3529C37.6292 80.7671 20.2456 68.4287 0 68.4287Z" fill="#00be62"/>
<path d="M45.1021 98.353C59.9772 98.353 72.7852 89.4892 78.5798 76.7253C63.7048 76.7253 50.879 85.6069 45.1021 98.353Z" fill="#00be62"/>
<path d="M45.102 0C24.8034 0 8.35611 16.5044 8.35611 36.8912C8.35611 57.2779 24.8034 73.7823 45.1197 73.7823C65.436 73.7823 81.8656 57.2779 81.8656 36.8912C81.8656 16.5044 65.4006 0 45.102 0ZM45.102 55.3279C34.9439 55.3279 26.7291 47.0668 26.7291 36.8912C26.7291 26.7155 34.9616 18.4544 45.102 18.4544C55.2425 18.4544 63.475 26.7155 63.475 36.8912C63.475 47.0668 55.2425 55.3279 45.102 55.3279Z" fill="#ffb804"/>
<path d="M106.015 15.9724H113.63L127.975 50.4526L142.973 15.9724H150.588L159.668 70.2366H148.962L144.104 36.8024L129.6 70.2366H126.031L112.163 36.8024L106.651 70.2366H95.9456L105.998 15.9724H106.015Z" fill="#15176e"/>
<path d="M185.161 63.6418H172.564L169.809 70.2188H163.201L176.645 38.8586H181.415L194.488 70.2188H187.934L185.178 63.6418H185.161ZM183.376 58.6604L178.924 47.3856L174.472 58.6604H183.376Z" fill="#15176e"/>
<path d="M219.398 69.1022C217.525 70.0949 215.034 70.9281 211.66 70.9281C206.183 70.9281 202.862 69.049 200.23 66.5494C196.626 63.0748 195.213 59.1747 195.213 54.5655C195.213 48.875 197.562 44.7799 200.23 42.298C203.375 39.3375 207.261 38.1675 211.713 38.1675C213.921 38.1675 216.536 38.5398 219.398 40.0998V47.244C216.536 43.9467 212.985 43.7162 211.854 43.7162C205.583 43.7162 201.502 48.8927 201.502 54.6719C201.502 61.6211 206.837 65.3971 212.084 65.3971C214.981 65.3971 217.561 64.1207 219.398 61.9579V69.1022Z" fill="#15176e"/>
<path d="M236.357 44.1418V70.2369H230.263V44.1418H223.231V38.8767H243.371V44.1418H236.34H236.357Z" fill="#15176e"/>
<path d="M264.553 44.1418H253.317V51.1442H264.094V56.4093H253.317V64.9718H264.553V70.2369H247.222V38.8767H264.553V44.1418Z" fill="#15176e"/>
<path d="M279.552 38.8764C283.067 38.8764 285.505 39.2487 287.802 41.2696C290.328 43.521 290.982 46.5879 290.982 48.8393C290.982 50.0625 290.787 53.4485 288.402 55.8417C286.671 57.579 284.092 58.6072 280.488 58.6072H276.548V70.2188H270.453V38.8586H279.534L279.552 38.8764ZM276.548 53.3598H279.039C280.205 53.3598 281.707 53.3598 283.014 52.3671C284.145 51.4807 284.692 50.0625 284.692 48.6975C284.692 46.9602 283.844 45.7901 282.961 45.1165C281.689 44.2301 280.099 44.1237 278.651 44.1237H276.548V53.3421V53.3598Z" fill="#15176e"/>
<path d="M318.153 69.1022C316.28 70.0949 313.789 70.9281 310.432 70.9281C304.956 70.9281 301.635 69.049 299.002 66.5494C295.398 63.0748 293.985 59.1747 293.985 54.5655C293.985 48.875 296.335 44.7799 299.002 42.298C302.147 39.3375 306.033 38.1675 310.485 38.1675C312.694 38.1675 315.308 38.5398 318.17 40.0998V47.244C315.308 43.9467 311.757 43.7162 310.627 43.7162C304.355 43.7162 300.274 48.8927 300.274 54.6719C300.274 61.6211 305.61 65.3971 310.856 65.3971C313.771 65.3971 316.333 64.1207 318.17 61.9579V69.1022H318.153Z" fill="#15176e"/>
<path d="M329.848 52.1189L341.331 38.8586H349.016L335.801 53.3421L349.722 70.2188H341.666L330.554 56.1608L329.848 56.8699V70.2188H323.753V38.8586H329.848V52.1189Z" fill="#15176e"/>
<path d="M372.529 63.6418H359.933L357.177 70.2188H350.57L364.014 38.8586H368.802L381.875 70.2188H375.321L372.565 63.6418H372.529ZM370.745 58.6604L366.293 47.3856L361.841 58.6604H370.745Z" fill="#15176e"/>
<path d="M405 70.2188H398.905V58.0931H397.775L389.807 70.2188H382.493L391.768 57.5258C390.602 57.3308 389.33 56.8167 388.341 56.1076C386.468 54.7426 384.825 52.1544 384.825 48.5379C384.825 45.0988 386.274 42.7055 387.917 41.2519C390.355 39.0891 393.305 38.8586 395.92 38.8586H404.965V70.2188H405ZM397.033 43.8401C395.902 43.8401 391.132 43.8933 391.132 48.5379C391.132 53.1826 395.92 53.2889 397.121 53.2889H398.905V43.8401H397.033Z" fill="#15176e"/>
<path d="M105.521 89.5069C104.196 88.1951 102.906 87.9646 102.023 87.9646C100.663 87.9646 99.8146 88.5319 99.2846 89.0637C98.7546 89.5955 98.2246 90.5528 98.2246 91.9533C98.2246 93.3538 98.7899 94.382 99.3376 94.9493C99.9913 95.5697 100.892 95.9598 101.952 95.9598C103.136 95.9598 104.514 95.4811 105.521 94.3643V97.6084C104.814 98.0516 103.666 98.5834 101.758 98.5834C99.6909 98.5834 98.2246 97.9807 97.041 96.7398C96.1577 95.8179 95.2744 94.3288 95.2744 92.0419C95.2744 89.7551 96.246 88.1241 97.1646 87.2023C98.1363 86.2273 99.6909 85.3586 102.147 85.3586C103.083 85.3586 104.214 85.5005 105.538 86.245V89.5069H105.521Z" fill="#15176e"/>
<path d="M120.908 91.9353C120.908 95.7644 118.029 98.5654 114.283 98.5654C110.538 98.5654 107.659 95.7644 107.659 91.9353C107.659 88.1061 110.538 85.3406 114.283 85.3406C118.029 85.3406 120.908 88.0706 120.908 91.9353ZM117.958 91.9707C117.958 89.1166 116.103 87.9643 114.283 87.9643C112.464 87.9643 110.609 89.1166 110.609 91.9707C110.609 94.3817 112.022 95.9594 114.283 95.9594C116.545 95.9594 117.958 94.3817 117.958 91.9707Z" fill="#15176e"/>
<path d="M123.116 87.2729C123.523 86.7588 124.141 86.2624 125.007 85.8724C126.031 85.4292 127.127 85.3406 127.922 85.3406C128.982 85.3406 130.077 85.4824 131.066 86.2092C132.003 86.9006 132.356 87.6983 132.356 88.762C132.356 89.3825 132.268 89.9143 131.826 90.4816C131.437 90.9957 130.996 91.2261 130.642 91.368C131.314 91.5098 132.003 91.8466 132.444 92.2898C133.098 92.9457 133.239 93.7435 133.239 94.3639C133.239 95.5162 132.886 96.4203 132.179 97.1294C131.208 98.1045 129.83 98.5477 127.816 98.5477C126.932 98.5477 125.696 98.459 124.583 97.8031C123.876 97.3954 123.116 96.6685 122.639 95.5694L124.936 94.3817C125.166 94.8958 125.554 95.3921 126.031 95.6935C126.526 96.0126 127.215 96.1722 127.886 96.1722C128.381 96.1722 129.335 96.0835 129.865 95.5517C130.13 95.2503 130.307 94.8603 130.307 94.4526C130.307 94.0448 130.165 93.6726 129.918 93.4421C129.423 92.9103 128.558 92.9103 127.851 92.9103H126.561V90.5348H127.657C128.063 90.5348 128.717 90.4461 129.07 90.2157C129.3 90.0384 129.6 89.737 129.6 89.1166C129.6 88.5847 129.335 88.2302 129.07 88.0529C128.664 87.7515 128.063 87.7338 127.692 87.7338C127.109 87.7338 126.632 87.8224 126.067 88.0884C125.713 88.2656 125.325 88.5315 124.971 88.9216L123.116 87.2906V87.2729Z" fill="#15176e"/>
<path d="M146.63 85.6594V95.4982H148.521V101.738H145.871V98.1751H137.214V101.738H134.564V95.4982C135.677 95.4451 136.455 94.6296 136.826 93.8673C137.179 93.0873 137.32 92.0768 137.32 90.57V85.6594H146.63ZM143.751 88.3363H140.094V91.6691C140.094 93.8319 139.422 94.9132 138.645 95.4982H143.733V88.3363H143.751Z" fill="#15176e"/>
<path d="M159.65 85.6597H162.53V98.1754H159.65V96.8635C158.378 98.3526 156.824 98.5654 155.94 98.5654C152.107 98.5654 149.934 95.3567 149.934 91.8998C149.934 87.8224 152.708 85.3406 155.976 85.3406C156.894 85.3406 158.484 85.571 159.668 87.1311V85.6774L159.65 85.6597ZM152.867 91.953C152.867 94.1157 154.227 95.9417 156.311 95.9417C158.131 95.9417 159.809 94.6121 159.809 91.9884C159.809 89.3647 158.131 87.9465 156.311 87.9465C154.227 87.9465 152.867 89.737 152.867 91.953Z" fill="#15176e"/>
<path d="M177.299 95.3214C176.769 96.2786 176.009 97.1118 175.214 97.6082C174.207 98.2641 172.882 98.5655 171.557 98.5655C169.914 98.5655 168.554 98.1578 167.371 96.9523C166.187 95.7645 165.551 94.045 165.551 92.1658C165.551 90.2867 166.222 88.3544 167.53 87.0248C168.554 85.9789 169.914 85.323 171.681 85.323C173.66 85.323 174.914 86.1916 175.656 86.9539C177.246 88.6203 177.387 90.9426 177.387 92.2367V92.5913H168.483C168.536 93.4777 168.925 94.4882 169.543 95.1263C170.215 95.8177 171.045 95.9241 171.752 95.9241C172.547 95.9241 173.13 95.7468 173.73 95.3036C174.225 94.9136 174.614 94.4172 174.879 93.9386L177.299 95.3036V95.3214ZM169.19 79.4197C170.215 79.4197 171.01 80.2174 171.01 81.2634C171.01 82.3093 170.215 83.107 169.19 83.107C168.165 83.107 167.371 82.3093 167.371 81.2634C167.371 80.2174 168.165 79.4197 169.19 79.4197ZM174.437 90.2335C174.313 89.5599 173.995 88.9571 173.554 88.5494C173.165 88.1948 172.547 87.8403 171.61 87.8403C170.603 87.8403 169.967 88.248 169.579 88.638C169.172 89.028 168.837 89.6131 168.695 90.2335H174.437ZM174.49 79.4197C175.532 79.4197 176.327 80.2174 176.327 81.2634C176.327 82.3093 175.532 83.107 174.49 83.107C173.448 83.107 172.67 82.3093 172.67 81.2634C172.67 80.2174 173.465 79.4197 174.49 79.4197Z" fill="#15176e"/>
<path d="M181.981 84.5427L187.104 94.0802L192.227 84.5427L195.23 98.1753H192.28L191.043 91.8997L187.104 99.1148L183.164 91.8997L181.928 98.1753H178.977L181.981 84.5427Z" fill="#15176e"/>
<path d="M215.14 85.6594V98.1751H212.261V88.3363H207.261V98.1751H204.382V85.6594H215.158H215.14Z" fill="#15176e"/>
<path d="M221.677 104.983H218.797V85.6598H221.677V87.0248C222.737 85.7485 224.115 85.323 225.369 85.323C228.637 85.323 231.411 87.858 231.411 91.829C231.411 96.0482 228.355 98.5478 225.404 98.5478C224.733 98.5478 222.984 98.3173 221.694 96.7041V104.965L221.677 104.983ZM221.5 91.9886C221.5 94.6123 223.178 95.9418 224.998 95.9418C227.083 95.9418 228.443 94.1336 228.443 91.9531C228.443 89.7726 227.083 87.9467 224.998 87.9467C223.178 87.9467 221.5 89.2585 221.5 91.9886Z" fill="#15176e"/>
<path d="M247.01 91.9353C247.01 95.7644 244.131 98.5654 240.385 98.5654C236.64 98.5654 233.761 95.7644 233.761 91.9353C233.761 88.1061 236.658 85.3406 240.385 85.3406C244.113 85.3406 247.01 88.0706 247.01 91.9353ZM244.06 91.9707C244.06 89.1166 242.205 87.9643 240.368 87.9643C238.53 87.9643 236.693 89.1166 236.693 91.9707C236.693 94.3817 238.106 95.9594 240.368 95.9594C242.629 95.9594 244.06 94.3817 244.06 91.9707Z" fill="#15176e"/>
<path d="M260.384 85.6594V95.4982H262.274V101.738H259.624V98.1751H250.968V101.738H248.318V95.4982C249.431 95.4451 250.208 94.6296 250.579 93.8673C250.932 93.0873 251.074 92.0768 251.074 90.57V85.6594H260.384ZM257.504 88.3363H253.847V91.6691C253.847 93.8319 253.176 94.9132 252.398 95.4982H257.504V88.3363Z" fill="#15176e"/>
<path d="M267.98 96.2249L262.68 85.677H266.161L269.694 92.9808L273.28 85.677H276.513L266.638 105H263.405L267.962 96.2249H267.98Z" fill="#15176e"/>
<path d="M281.424 85.6594V90.1091L285.54 85.6594H289.374L283.95 91.1373L289.657 98.1751H286L281.884 93.0341L281.407 93.5128V98.1751H278.527V85.6594H281.407H281.424Z" fill="#15176e"/>
<path d="M296.776 88.3363V98.1751H293.897V88.3363H290.275V85.6594H300.416V88.3363H296.794H296.776Z" fill="#15176e"/>
<path d="M302.465 85.6598H305.344V90.0917H306.987C308.189 90.0917 309.602 90.1272 310.733 91.3681C311.563 92.2899 311.704 93.3536 311.704 94.0982C311.704 95.5518 311.139 96.5446 310.591 97.0941C309.496 98.1578 308.206 98.1578 306.97 98.1578H302.465V85.6421V85.6598ZM306.687 95.6759C307.252 95.6759 307.8 95.6405 308.189 95.41C308.401 95.2682 308.842 94.9136 308.842 94.1336C308.842 93.5131 308.577 93.1231 308.224 92.8927C307.747 92.5913 307.164 92.5913 306.722 92.5913H305.362V95.6759H306.687ZM313.012 85.6598H315.909V98.1755H313.012V85.6598Z" fill="#15176e"/>
<path d="M331.279 85.6594C332.021 85.6594 333.169 85.6949 334.105 86.404C334.547 86.7585 335.254 87.5031 335.254 88.8149C335.254 89.8254 334.777 90.7472 333.787 91.2613C334.37 91.3854 334.989 91.6691 335.466 92.0945C336.031 92.6087 336.437 93.3709 336.437 94.5055C336.437 96.0301 335.695 96.881 335.077 97.3596C334.052 98.1397 332.78 98.1928 332.215 98.1928H326.42V85.6772H331.279V85.6594ZM330.784 90.5345C331.455 90.5345 331.844 90.3218 331.932 90.2686C332.409 89.9672 332.498 89.5595 332.498 89.2581C332.498 88.8149 332.286 88.4781 332.003 88.2831C331.614 88.0172 331.173 88.0526 330.731 88.0526H329.318V90.5522H330.784V90.5345ZM331.455 95.7996C331.932 95.7996 332.515 95.7464 332.957 95.4451C333.222 95.2678 333.54 94.9132 333.54 94.346C333.54 93.7787 333.275 93.4241 332.975 93.2468C332.533 92.9455 331.95 92.9277 331.526 92.9277H329.282V95.8173H331.438L331.455 95.7996Z" fill="#15176e"/>
<path d="M341.03 84.5427L346.153 94.0802L351.277 84.5427L354.28 98.1753H351.33L350.093 91.8997L346.153 99.1148L342.214 91.8997L340.977 98.1753H338.027L341.03 84.5427Z" fill="#15176e"/>
<path d="M367.636 95.3214C367.106 96.2787 366.346 97.1119 365.551 97.6082C364.544 98.2642 363.219 98.5655 361.894 98.5655C360.251 98.5655 358.891 98.1578 357.707 96.9523C356.524 95.7468 355.888 94.045 355.888 92.1659C355.888 90.2867 356.559 88.3544 357.866 87.0248C358.891 85.9789 360.251 85.323 362.018 85.323C363.996 85.323 365.251 86.1916 365.993 86.9539C367.583 88.6203 367.724 90.9426 367.724 92.2368V92.5913H358.82C358.873 93.4777 359.262 94.4882 359.88 95.1264C360.552 95.8177 361.382 95.9241 362.088 95.9241C362.883 95.9241 363.466 95.7468 364.067 95.3036C364.562 94.9136 364.95 94.4173 365.215 93.9386L367.636 95.3036V95.3214ZM364.774 90.2335C364.65 89.5599 364.332 88.9572 363.89 88.5494C363.502 88.1949 362.883 87.8403 361.947 87.8403C360.94 87.8403 360.304 88.2481 359.916 88.6381C359.509 89.0281 359.174 89.6131 359.032 90.2335H364.774Z" fill="#15176e"/>
<path d="M380.338 89.5069C379.013 88.1951 377.723 87.9646 376.822 87.9646C375.462 87.9646 374.614 88.5319 374.084 89.0637C373.554 89.5955 373.024 90.5528 373.024 91.9533C373.024 93.3538 373.589 94.382 374.137 94.9493C374.791 95.5697 375.692 95.9598 376.752 95.9598C377.935 95.9598 379.313 95.4811 380.32 94.3643V97.6084C379.614 98.0516 378.465 98.5834 376.54 98.5834C374.473 98.5834 373.006 97.9807 371.823 96.7398C370.939 95.8179 370.056 94.3288 370.056 92.0419C370.056 89.7551 371.028 88.1241 371.946 87.2023C372.918 86.2273 374.473 85.3586 376.928 85.3586C377.865 85.3586 378.995 85.5005 380.32 86.245V89.5069H380.338Z" fill="#15176e"/>
<path d="M388.305 88.3363V98.1751H385.426V88.3363H381.804V85.6594H391.945V88.3363H388.323H388.305Z" fill="#15176e"/>
<path d="M404.788 95.3214C404.258 96.2787 403.498 97.1119 402.703 97.6082C401.696 98.2642 400.371 98.5655 399.046 98.5655C397.404 98.5655 396.043 98.1578 394.86 96.9523C393.676 95.7646 393.04 94.045 393.04 92.1659C393.04 90.2867 393.711 88.3544 395.019 87.0248C396.043 85.9789 397.403 85.323 399.17 85.323C401.149 85.323 402.403 86.1916 403.145 86.9539C404.735 88.6203 404.876 90.9426 404.876 92.2368V92.5913H395.973C396.026 93.4777 396.414 94.4882 397.033 95.1264C397.704 95.8177 398.534 95.9241 399.241 95.9241C400.036 95.9241 400.619 95.7468 401.219 95.3036C401.714 94.9136 402.103 94.4173 402.368 93.9386L404.788 95.3036V95.3214ZM401.926 90.2335C401.802 89.5599 401.484 88.9572 401.043 88.5494C400.654 88.1949 400.036 87.8403 399.099 87.8403C398.092 87.8403 397.456 88.2481 397.068 88.6381C396.662 89.0281 396.326 89.6131 396.185 90.2335H401.926Z" fill="#15176e"/>
</svg>
